<mxfile host="Electron" modified="2023-11-27T15:47:32.425Z" agent="Mozilla/5.0 (Windows NT 10.0; Win64; x64) AppleWebKit/537.36 (KHTML, like Gecko) draw.io/21.6.8 Chrome/114.0.5735.289 Electron/25.5.0 Safari/537.36" etag="ASq8P1fOhleWjkjqhnV2" version="21.6.8" type="device">
  <diagram id="C5RBs43oDa-KdzZeNtuy" name="Page-1">
    <mxGraphModel dx="954" dy="1783" grid="1" gridSize="10" guides="1" tooltips="1" connect="1" arrows="1" fold="1" page="1" pageScale="1" pageWidth="827" pageHeight="1169" math="0" shadow="0">
      <root>
        <mxCell id="WIyWlLk6GJQsqaUBKTNV-0" />
        <mxCell id="WIyWlLk6GJQsqaUBKTNV-1" parent="WIyWlLk6GJQsqaUBKTNV-0" />
        <mxCell id="Kh6UWCqLEouyqFOK7ntM-9" value="" style="endArrow=classic;html=1;rounded=0;entryX=1;entryY=0.5;entryDx=0;entryDy=0;exitX=0.013;exitY=0.5;exitDx=0;exitDy=0;exitPerimeter=0;" parent="WIyWlLk6GJQsqaUBKTNV-1" source="Kh6UWCqLEouyqFOK7ntM-7" edge="1" target="IEeFdyCGopTc3gh3-DFE-2">
          <mxGeometry width="50" height="50" relative="1" as="geometry">
            <mxPoint x="610" y="-20" as="sourcePoint" />
            <mxPoint x="380.5" y="-80" as="targetPoint" />
          </mxGeometry>
        </mxCell>
        <mxCell id="Kh6UWCqLEouyqFOK7ntM-27" value="definition" style="edgeLabel;html=1;align=center;verticalAlign=middle;resizable=0;points=[];" parent="Kh6UWCqLEouyqFOK7ntM-9" vertex="1" connectable="0">
          <mxGeometry x="-0.4009" y="1" relative="1" as="geometry">
            <mxPoint x="-14" y="-2" as="offset" />
          </mxGeometry>
        </mxCell>
        <mxCell id="Kh6UWCqLEouyqFOK7ntM-12" value="Substance&lt;br style=&quot;border-color: var(--border-color);&quot;&gt;&lt;i style=&quot;border-color: var(--border-color);&quot;&gt;Batch CAT2&lt;br style=&quot;border-color: var(--border-color);&quot;&gt;Size, Site, Date, Process&lt;/i&gt;&lt;i&gt;&lt;br&gt;&lt;/i&gt;" style="rounded=1;whiteSpace=wrap;html=1;fontSize=12;glass=0;strokeWidth=1;shadow=0;fillColor=#E6FFCC;strokeColor=#66CC00;" parent="WIyWlLk6GJQsqaUBKTNV-1" vertex="1">
          <mxGeometry x="320" y="-300" width="170" height="50" as="geometry" />
        </mxCell>
        <mxCell id="IEeFdyCGopTc3gh3-DFE-2" value="SubstanceDefinition&lt;br&gt;&lt;i style=&quot;border-color: var(--border-color);&quot;&gt;Stelbatolol&lt;/i&gt;" style="rounded=1;whiteSpace=wrap;html=1;fontSize=12;glass=0;strokeWidth=1;shadow=0;fillColor=#c1f0da;strokeColor=#9ebda2;" parent="WIyWlLk6GJQsqaUBKTNV-1" vertex="1">
          <mxGeometry x="50" y="-330" width="155.5" height="40" as="geometry" />
        </mxCell>
        <mxCell id="UN-UIbJcQvI0cDzuV6Tw-0" value="" style="endArrow=classic;html=1;rounded=0;entryX=1;entryY=0.5;entryDx=0;entryDy=0;exitX=0;exitY=0.5;exitDx=0;exitDy=0;" edge="1" parent="WIyWlLk6GJQsqaUBKTNV-1" source="Kh6UWCqLEouyqFOK7ntM-12" target="IEeFdyCGopTc3gh3-DFE-2">
          <mxGeometry width="50" height="50" relative="1" as="geometry">
            <mxPoint x="331" y="-340" as="sourcePoint" />
            <mxPoint x="216" y="-300" as="targetPoint" />
          </mxGeometry>
        </mxCell>
        <mxCell id="UN-UIbJcQvI0cDzuV6Tw-1" value="definition" style="edgeLabel;html=1;align=center;verticalAlign=middle;resizable=0;points=[];" vertex="1" connectable="0" parent="UN-UIbJcQvI0cDzuV6Tw-0">
          <mxGeometry x="-0.4009" y="1" relative="1" as="geometry">
            <mxPoint x="-14" y="-2" as="offset" />
          </mxGeometry>
        </mxCell>
        <mxCell id="Kh6UWCqLEouyqFOK7ntM-7" value="Substance&lt;br&gt;&lt;i&gt;Batch CAT1&lt;br&gt;Size, Site, Date, Process&lt;br&gt;&lt;/i&gt;" style="rounded=1;whiteSpace=wrap;html=1;fontSize=12;glass=0;strokeWidth=1;shadow=0;fillColor=#E6FFCC;strokeColor=#66CC00;" parent="WIyWlLk6GJQsqaUBKTNV-1" vertex="1">
          <mxGeometry x="320" y="-370" width="170" height="50" as="geometry" />
        </mxCell>
      </root>
    </mxGraphModel>
  </diagram>
</mxfile>
